<?xml version="1.0" encoding="UTF-8"?>
<svg version="1.1" xmlns="http://www.w3.org/2000/svg" width="1024" height="1024">
<path d="M0 0 C4.16602801 1.388676 4.48551191 3.33008049 6.44140625 7.2109375 C6.92686668 8.16327774 6.92686668 8.16327774 7.4221344 9.13485718 C8.47789429 11.21049068 9.52002633 13.29266672 10.5625 15.375 C11.29106858 16.81207472 12.02072858 18.24859662 12.75146484 19.68457031 C14.19314656 22.51873618 15.63095871 25.35480798 17.06591797 28.19238281 C19.36922362 32.7380978 21.73461468 37.24954846 24.125 41.75 C28.74049741 50.47394847 33.27694866 59.23831833 37.81323242 68.00366211 C40.91636139 73.99551586 44.032867 79.97951709 47.1862793 85.94506836 C48.76651955 88.93503709 50.33811459 91.92949519 51.90820312 94.92480469 C52.63991052 96.31557233 53.37563503 97.70423344 54.11523438 99.09082031 C55.15051904 101.03407008 56.17066577 102.98454904 57.1875 104.9375 C57.75855469 106.01902344 58.32960938 107.10054688 58.91796875 108.21484375 C60 111 60 111 59 115 C20.72 115 -17.56 115 -57 115 C-58.41083674 110.76748977 -56.55734304 108.29017613 -54.6875 104.5 C-54.31995605 103.73864746 -53.95241211 102.97729492 -53.57373047 102.19287109 C-50.63996485 96.1714495 -47.54675761 90.23768958 -44.40136719 84.32470703 C-40.39756601 76.79290592 -36.48957356 69.21360382 -32.59329224 61.62582397 C-31.43514777 59.3704192 -30.27613346 57.11546322 -29.11694336 54.8605957 C-25.54291147 47.90668732 -21.97332088 40.95054692 -18.4138031 33.98919678 C-16.87500145 30.98107297 -15.33348201 27.97434667 -13.79153442 24.96783447 C-13.06436186 23.54822285 -12.33847821 22.12795016 -11.61398315 20.70697021 C-8.00332573 13.62582999 -4.37044542 6.65288306 0 0 Z M0 55 C-10.97494878 71.26575041 -10.97494878 71.26575041 -17 89 C-5.12 89 6.76 89 19 89 C17.36382431 84.90956078 15.55617573 81.06051269 13.5234375 77.16796875 C13.19332672 76.53135818 12.86321594 75.89474762 12.52310181 75.23884583 C11.47591435 73.2205897 10.42551071 71.204028 9.375 69.1875 C8.6612447 67.81326198 7.9477008 66.43891414 7.234375 65.06445312 C5.49202703 61.70835967 3.74679412 58.3537813 2 55 C1.34 55 0.68 55 0 55 Z " fill="#000000" transform="translate(511,248)"/>
<path d="M0 0 C30.04811006 2.37408417 59.92493936 9.56959716 87 23 C87.87688477 23.42764648 88.75376953 23.85529297 89.65722656 24.29589844 C104.20968848 31.4385512 117.79922011 39.59384863 131 49 C131.61875 49.43924805 132.2375 49.87849609 132.875 50.33105469 C139.03725161 54.76743984 139.03725161 54.76743984 141 57 C141 58.32 141 59.64 141 61 C138.93137236 62.85217931 136.96242968 64.37539494 134.6875 65.9375 C134.02032959 66.41058594 133.35315918 66.88367188 132.66577148 67.37109375 C130.45484057 68.93049675 128.22944421 70.46719799 126 72 C125.23526367 72.52867676 124.47052734 73.05735352 123.68261719 73.60205078 C118.90705993 76.90002717 114.11247041 80.16928284 109.31054688 83.42871094 C105.80226932 85.81451761 102.30702312 88.21911202 98.8125 90.625 C98.16490723 91.07029053 97.51731445 91.51558105 96.85009766 91.97436523 C93.5568028 94.23896891 90.26556812 96.50651507 86.9765625 98.77734375 C78.04248901 104.94059402 69.0488031 111.00646806 60 117 C56.6084785 115.61610923 55.30870742 114.36792511 53.67602539 111.10913086 C53.26283554 110.29913132 52.84964569 109.48913177 52.42393494 108.65458679 C51.98626297 107.76697159 51.548591 106.87935638 51.09765625 105.96484375 C50.62739517 105.03529373 50.15713409 104.10574371 49.67262268 103.14802551 C48.12504112 100.08319409 46.59397633 97.01040615 45.0625 93.9375 C43.99068871 91.80893129 42.91759551 89.68100761 41.84326172 87.55371094 C39.6378888 83.18455031 37.43788231 78.81275155 35.24169922 74.43896484 C30.85352563 65.70983043 26.4022662 57.01323666 21.94284058 48.32034302 C20.66956352 45.8369176 19.39898938 43.35212816 18.12915039 40.86694336 C13.55868971 31.93072275 8.9317617 23.02644626 4.24136353 14.15252686 C3.84637665 13.40513245 3.45138977 12.65773804 3.04443359 11.88769531 C2.6972226 11.23198547 2.3500116 10.57627563 1.99227905 9.9006958 C1.66482697 9.27346619 1.33737488 8.64623657 1 8 C0.43014877 6.9593338 0.43014877 6.9593338 -0.1512146 5.89764404 C-1.21134933 3.52748268 -0.85596093 2.39669059 0 0 Z M43 33 C44.68935328 38.99318187 47.60335875 44.2746967 50.5 49.75 C51.02883789 50.75683838 51.55767578 51.76367676 52.10253906 52.80102539 C56.92688746 61.94664456 61.91860132 70.99513199 67 80 C70.27929379 79.37436345 72.46424311 78.20437359 75.1953125 76.3046875 C76.3867688 75.48230591 76.3867688 75.48230591 77.60229492 74.64331055 C78.4347876 74.05976807 79.26728027 73.47622559 80.125 72.875 C80.97360596 72.2869458 81.82221191 71.6988916 82.6965332 71.09301758 C85.13515472 69.40118449 87.56828095 67.70173339 90 66 C91.15737164 65.19375133 92.31489514 64.38772055 93.47265625 63.58203125 C95.65275566 62.06066691 97.82921799 60.53461453 100 59 C96.89544352 55.55218789 93.5116882 53.37148993 89.4375 51.25 C88.78692627 50.90855957 88.13635254 50.56711914 87.46606445 50.21533203 C66.09150115 38.52476601 66.09150115 38.52476601 43 33 Z " fill="#000000" transform="translate(536,248)"/>
<path d="M0 0 C-0.62172331 4.57097981 -2.47217933 8.32426559 -4.5625 12.375 C-4.91892578 13.07689453 -5.27535156 13.77878906 -5.64257812 14.50195312 C-8.35980996 19.82658141 -11.17090647 25.09967638 -14.00268555 30.36401367 C-17.82770532 37.496556 -21.40800023 44.74816594 -25 52 C-30.29074662 62.6747027 -35.64056229 73.30539346 -41.23632812 83.82397461 C-43.45411326 88.00851605 -45.6163204 92.21322795 -47.7109375 96.4609375 C-48.15695312 97.36521484 -48.60296875 98.26949219 -49.0625 99.20117188 C-49.9144306 100.93672692 -50.76110458 102.67487589 -51.6015625 104.41601562 C-53.70001273 108.69335668 -55.81113665 112.40342809 -59 116 C-63.22768494 114.76412104 -66.3219404 113.29790024 -69.8125 110.625 C-70.76898438 109.90828125 -71.72546875 109.1915625 -72.7109375 108.453125 C-73.23526367 108.05931641 -73.75958984 107.66550781 -74.29980469 107.25976562 C-77.47248712 104.90895555 -80.70768015 102.64631673 -83.9375 100.375 C-84.6584082 99.86759277 -85.37931641 99.36018555 -86.12207031 98.83740234 C-87.6367533 97.77172173 -89.15173418 96.70646441 -90.66699219 95.64160156 C-93.01237316 93.99129373 -95.35398916 92.33574547 -97.6953125 90.6796875 C-107.99858562 83.41101854 -118.41149163 76.33311665 -128.95532227 69.41699219 C-133.87855295 66.16923676 -138.57690243 62.90582006 -143 59 C-141.64785938 55.85160652 -140.30963156 54.1804987 -137.53515625 52.1875 C-136.47337158 51.41925903 -136.47337158 51.41925903 -135.39013672 50.63549805 C-134.6220166 50.09578369 -133.85389648 49.55606934 -133.0625 49 C-131.86391357 48.1488562 -131.86391357 48.1488562 -130.64111328 47.28051758 C-117.01829976 37.70152032 -103.12478316 28.99597764 -88 22 C-87.3709375 21.70287109 -86.741875 21.40574219 -86.09375 21.09960938 C-65.0079232 11.18322157 -22.98154349 -7.6605145 0 0 Z M-78 44.5 C-79.03721191 44.95028564 -80.07442383 45.40057129 -81.14306641 45.86450195 C-87.73686424 48.79760513 -93.90501001 52.13669329 -100 56 C-98.82127986 59.53616043 -97.91484182 60.03869144 -94.9140625 62.109375 C-94.07004883 62.69638184 -93.22603516 63.28338867 -92.35644531 63.88818359 C-91.45506836 64.50258301 -90.55369141 65.11698242 -89.625 65.75 C-88.2652002 66.68900146 -88.2652002 66.68900146 -86.87792969 67.64697266 C-80.67405947 71.9119947 -74.41108938 76.05260299 -68 80 C-67.69408936 79.40799805 -67.38817871 78.81599609 -67.07299805 78.20605469 C-61.00502864 66.47909091 -54.8884789 54.79421838 -48.39135742 43.29785156 C-47.95927979 42.52538086 -47.52720215 41.75291016 -47.08203125 40.95703125 C-46.70280518 40.28647705 -46.3235791 39.61592285 -45.93286133 38.92504883 C-44.98242455 36.96373137 -44.44894764 35.12738949 -44 33 C-55.20878882 33 -67.95568369 40.11036674 -78 44.5 Z " fill="#000000" transform="translate(489,249)"/>
<path d="M0 0 C3.05069471 0.48978857 5.18779081 1.58741557 7.73046875 3.30078125 C8.44235352 3.77725098 9.15423828 4.2537207 9.88769531 4.74462891 C10.64663086 5.26202637 11.40556641 5.77942383 12.1875 6.3125 C12.98124023 6.84794434 13.77498047 7.38338867 14.59277344 7.93505859 C22.81307437 13.50370206 30.91932111 19.2314285 39 25 C40.3449494 25.95717555 41.68999963 26.91420944 43.03515625 27.87109375 C52.99595647 34.96545853 52.99595647 34.96545853 57 38 C56.67 38.99 56.34 39.98 56 41 C50.21684765 42.88092819 44.19938889 43.67600837 38.20654297 44.64746094 C1.80353223 50.56516812 -33.94949773 60.54315664 -65.59375 79.93359375 C-68.03890826 81.41695237 -70.4144082 82.79295077 -73 84 C-62.14174316 56.43673263 -46.45442336 31.54685399 -27.375 8.9375 C-26.64796875 8.0705249 -26.64796875 8.0705249 -25.90625 7.18603516 C-23.34283547 4.22706549 -21.58643227 2.79321614 -18 1 C-18 11.23 -18 21.46 -18 32 C-13.38 30.68 -8.76 29.36 -4 28 C-3.01 28 -2.02 28 -1 28 C-1.00523682 27.18732666 -1.01047363 26.37465332 -1.01586914 25.53735352 C-1.03656994 21.87907678 -1.04963803 18.22081233 -1.0625 14.5625 C-1.07087891 13.28310547 -1.07925781 12.00371094 -1.08789062 10.68554688 C-1.09111328 9.47060547 -1.09433594 8.25566406 -1.09765625 7.00390625 C-1.10289307 5.87799072 -1.10812988 4.7520752 -1.11352539 3.59204102 C-1 1 -1 1 0 0 Z " fill="#000000" transform="translate(342,328)"/>
<path d="M0 0 C0.99 0.33 1.98 0.66 3 1 C3.33 9.58 3.66 18.16 4 27 C9.28 28.65 14.56 30.3 20 32 C20 21.77 20 11.54 20 1 C34.27977629 8.13988815 44.45246437 26.95376141 53 40 C53.58346191 40.88993652 53.58346191 40.88993652 54.17871094 41.79785156 C59.4323969 49.92215518 63.79991045 58.41362748 68 67.125 C68.48146484 68.12152588 68.96292969 69.11805176 69.45898438 70.14477539 C69.90564453 71.08957764 70.35230469 72.03437988 70.8125 73.0078125 C71.21082031 73.84973145 71.60914063 74.69165039 72.01953125 75.55908203 C73.01412941 78.03517575 73.56378783 80.37275975 74 83 C70.00357439 81.55806622 66.68602803 79.61856014 63.125 77.3125 C48.43886483 68.12011358 32.33578616 62.54085451 16 57 C15.13745605 56.70706055 14.27491211 56.41412109 13.38623047 56.11230469 C-1.76417182 51.05911546 -17.34241684 48.03330365 -33 45 C-34.1044043 44.78537109 -35.20880859 44.57074219 -36.34667969 44.34960938 C-42.22704767 43.21077389 -48.11115084 42.09410312 -54 41 C-54 39.68 -54 38.36 -54 37 C-51.79008091 35.10262661 -49.66638857 33.53788591 -47.25 31.9375 C-46.51716797 31.43653809 -45.78433594 30.93557617 -45.02929688 30.41943359 C-43.34206598 29.26907984 -41.65028939 28.12537717 -39.95507812 26.98681641 C-36.61121568 24.73860486 -33.28170379 22.46996214 -29.953125 20.19921875 C-19.0190058 12.74756132 -19.0190058 12.74756132 -13.71917725 9.18684387 C-11.21409599 7.50378472 -8.7250288 5.80534314 -6.26171875 4.06152344 C-5.06482422 3.22282715 -5.06482422 3.22282715 -3.84375 2.3671875 C-3.16505859 1.8810498 -2.48636719 1.39491211 -1.78710938 0.89404297 C-0.90249023 0.4514917 -0.90249023 0.4514917 0 0 Z " fill="#000000" transform="translate(680,328)"/>
<path d="M0 0 C1.25296875 0.00580078 1.25296875 0.00580078 2.53125 0.01171875 C3.39492188 0.03621094 4.25859375 0.06070312 5.1484375 0.0859375 C6.45554687 0.08787109 6.45554687 0.08787109 7.7890625 0.08984375 C14.24224882 0.17974882 14.24224882 0.17974882 16.5234375 2.4609375 C16.84901428 5.24693298 16.84901428 5.24693298 16.95336914 8.84741211 C16.97465881 9.50303131 16.99594849 10.15865051 17.0178833 10.83413696 C17.08464963 13.01036985 17.13563363 15.18655666 17.18359375 17.36328125 C17.20152922 18.10896425 17.21946468 18.85464725 17.23794365 19.62292671 C17.33215742 23.57763288 17.41395825 27.53238073 17.48608398 31.48754883 C17.56263484 35.55019765 17.68161519 39.61040244 17.81083012 43.67166805 C17.90274738 46.81233043 17.96218151 49.95303944 18.01327324 53.0946064 C18.04315026 54.59020381 18.08494585 56.08561739 18.1394825 57.58051872 C18.49684217 67.78019729 16.98610935 74.35814165 10.5234375 82.4609375 C9.45756542 83.9740658 8.39774954 85.49150407 7.34765625 87.015625 C6.30583054 88.45844236 5.26021223 89.89852828 4.2109375 91.3359375 C3.6540625 92.10333252 3.0971875 92.87072754 2.5234375 93.66137695 C-0.91141697 98.374968 -4.40880346 103.03479119 -7.9765625 107.6484375 C-8.76675781 108.67324219 -9.55695313 109.69804687 -10.37109375 110.75390625 C-11.64578254 112.39279183 -12.93174731 114.02310588 -14.23828125 115.63671875 C-16.88058758 118.88927433 -16.88058758 118.88927433 -17.25219727 122.90429688 C-16.45123169 125.54443271 -15.53153628 127.17441877 -13.87890625 129.3671875 C-13.33210205 130.10122803 -12.78529785 130.83526855 -12.22192383 131.59155273 C-11.32703247 132.76439819 -11.32703247 132.76439819 -10.4140625 133.9609375 C-9.49306763 135.18889038 -9.49306763 135.18889038 -8.5534668 136.44165039 C-6.53784746 139.12247726 -4.50848317 141.79244902 -2.4765625 144.4609375 C-1.015625 146.38671875 0.4453125 148.3125 1.90625 150.23828125 C5.24024868 154.62624405 8.58416135 159.00648099 11.9362793 163.38061523 C12.4600415 164.06712158 12.98380371 164.75362793 13.5234375 165.4609375 C14.30352173 166.26935341 14.30352173 166.26935341 15.09936523 167.09410095 C17.11767155 170.44856635 16.93452183 173.61043086 16.89575195 177.41064453 C16.89940262 178.20780884 16.90305328 179.00497314 16.90681458 179.82629395 C16.91491114 182.45733029 16.90132001 185.08774915 16.88671875 187.71875 C16.88620014 189.54670206 16.88671788 191.37465469 16.88822937 193.2026062 C16.88813969 197.03082622 16.87771766 200.85883543 16.85961914 204.68701172 C16.83690004 209.60126626 16.83639413 214.51521366 16.84313679 219.4295063 C16.84647266 223.20236964 16.83985445 226.97516255 16.83000755 230.74801254 C16.82615106 232.5605622 16.82500919 234.37311969 16.8265934 236.18567276 C16.82696293 238.71394128 16.81437661 241.24181077 16.7980957 243.77001953 C16.80057312 244.52330536 16.80305054 245.27659119 16.80560303 246.05270386 C16.75218315 251.23219185 16.75218315 251.23219185 14.5234375 253.4609375 C12.4921875 253.71972656 12.4921875 253.71972656 10.0234375 253.7265625 C9.1365625 253.72914063 8.2496875 253.73171875 7.3359375 253.734375 C6.4078125 253.72664062 5.4796875 253.71890625 4.5234375 253.7109375 C3.5953125 253.71867188 2.6671875 253.72640625 1.7109375 253.734375 C0.380625 253.73050781 0.380625 253.73050781 -0.9765625 253.7265625 C-1.79125 253.72430664 -2.6059375 253.72205078 -3.4453125 253.71972656 C-5.4765625 253.4609375 -5.4765625 253.4609375 -7.4765625 251.4609375 C-7.67428589 248.66389465 -7.67428589 248.66389465 -7.60498047 245.04614258 C-7.58583918 243.67959209 -7.56679048 242.31304031 -7.54782104 240.94648743 C-7.52733515 239.8563758 -7.52733515 239.8563758 -7.50643539 238.74424171 C-7.44201789 234.87466315 -7.43735147 231.00479324 -7.421875 227.13476562 C-7.39842923 222.21882131 -7.35830672 217.30484982 -7.25390625 212.38989258 C-5.83069743 191.10594742 -5.83069743 191.10594742 -13.984375 172.47265625 C-15.48667786 171.01213104 -17.03169427 169.63844007 -18.62701416 168.28036499 C-22.78613836 164.18897427 -26.07271233 159.18122596 -29.4765625 154.4609375 C-29.4735463 155.51836655 -29.47053009 156.57579559 -29.46742249 157.66526794 C-29.44349642 167.65496598 -29.45644326 177.6440347 -29.50502872 187.63365078 C-29.52883202 192.76891076 -29.539869 197.9035231 -29.52124023 203.03881836 C-29.50372296 207.99944266 -29.52038084 212.95890636 -29.56023979 217.91938972 C-29.56949825 219.80707869 -29.56666517 221.69486884 -29.55125618 223.58251762 C-29.41954056 241.46148828 -29.41954056 241.46148828 -35.78172302 247.989151 C-36.62066856 248.71768532 -36.62066856 248.71768532 -37.4765625 249.4609375 C-38.4665625 250.4509375 -38.4665625 250.4509375 -39.4765625 251.4609375 C-43.53090405 251.36493122 -45.90588631 249.71007329 -48.76386434 246.91072494 C-57.60017518 237.1828672 -56.97930515 227.31181831 -56.75708008 214.7199707 C-56.75725163 212.43560782 -56.76225047 210.151241 -56.77168274 207.86689758 C-56.78332918 201.697387 -56.72712622 195.53019161 -56.65775895 189.36113 C-56.59621699 182.89995422 -56.59583025 176.43876408 -56.58830261 169.9773407 C-56.56718184 159.14077496 -56.50632028 148.30518099 -56.41625977 137.46899414 C-56.32367285 126.31891825 -56.26007037 115.16922852 -56.23168945 104.01879883 C-56.2299303 103.33036207 -56.22817115 102.6419253 -56.22635869 101.93262682 C-56.21936437 99.16535474 -56.21246459 96.39808244 -56.20571594 93.63080974 C-56.17438794 81.07021218 -56.11745516 68.50971342 -56.05859375 55.94921875 C-56.05298502 54.67342083 -56.04737629 53.39762291 -56.0415976 52.08316445 C-56.00854996 44.76680246 -55.96484689 37.45065957 -55.90400505 30.1344738 C-55.88691997 27.91483515 -55.87320154 25.69516778 -55.86301422 23.47548676 C-55.84841266 20.45735583 -55.82149954 17.43959208 -55.79109192 14.42158508 C-55.78941428 13.53357832 -55.78773665 12.64557155 -55.78600818 11.73065549 C-55.70512679 5.68950179 -55.70512679 5.68950179 -53.4765625 3.4609375 C-49.84323927 2.80259175 -46.16050232 2.66479188 -42.4765625 2.4609375 C-41.61160156 2.40679687 -40.74664062 2.35265625 -39.85546875 2.296875 C-38.67791016 2.25433594 -38.67791016 2.25433594 -37.4765625 2.2109375 C-36.7753125 2.18515625 -36.0740625 2.159375 -35.3515625 2.1328125 C-32.68744882 2.59903239 -32.05100512 3.23391786 -30.4765625 5.4609375 C-30.16684145 8.27725252 -30.03909053 10.87714713 -30.04418945 13.69604492 C-30.0339978 14.53529007 -30.02380615 15.37453522 -30.01330566 16.23921204 C-29.98309571 19.01501064 -29.97389759 21.79046462 -29.96484375 24.56640625 C-29.94800298 26.49027155 -29.92985356 28.4141258 -29.91044617 30.33796692 C-29.86287461 35.4030309 -29.83311156 40.46805011 -29.80700684 45.53326416 C-29.77723738 50.70130253 -29.73069468 55.86918652 -29.68554688 61.03710938 C-29.59943237 71.17830479 -29.53212335 81.3195319 -29.4765625 91.4609375 C-27.28480641 88.67258986 -25.09899197 85.87963658 -22.9140625 83.0859375 C-22.30498047 82.31121094 -21.69589844 81.53648437 -21.06835938 80.73828125 C-19.82145224 79.14171233 -18.58710948 77.53526261 -17.36457825 75.91995239 C-16.10824086 74.28365653 -14.80888754 72.67949277 -13.46879578 71.11105347 C-7.8639735 64.13747788 -7.58616277 58.47205567 -7.93359375 49.71875 C-7.96321798 47.7542273 -7.9928217 45.78970402 -8.02119732 43.82516289 C-8.06897018 41.10183096 -8.14869874 38.37982363 -8.22906494 35.6572876 C-8.3678082 30.86732828 -8.47639324 26.07695034 -8.55363464 21.28561401 C-8.59788373 18.74098604 -8.66270406 16.19661494 -8.75019836 13.65310669 C-8.77309433 12.50446136 -8.7959903 11.35581604 -8.81958008 10.17236328 C-8.84957596 9.16327911 -8.87957184 8.15419495 -8.91047668 7.11453247 C-8.08654917 2.07581749 -4.91213446 -0.05295262 0 0 Z " fill="#000000" transform="translate(486.4765625,378.5390625)"/>
<path d="M0 0 C2.10717773 -0.37231445 2.10717773 -0.37231445 4.68359375 -0.36328125 C5.61107422 -0.36263672 6.53855469 -0.36199219 7.49414062 -0.36132812 C8.46544922 -0.34521484 9.43675781 -0.32910156 10.4375 -0.3125 C11.40494141 -0.31572266 12.37238281 -0.31894531 13.36914062 -0.32226562 C20.59939069 -0.26707288 20.59939069 -0.26707288 24 2 C23.64743845 7.47004591 20.34113801 10.88819352 17.0625 15 C16.48218018 15.74241943 15.90186035 16.48483887 15.30395508 17.24975586 C14.11711861 18.76792361 12.92692824 20.28347538 11.73339844 21.79638672 C9.18972259 25.03007942 6.6892459 28.29634455 4.1875 31.5625 C3.36884768 32.62657768 2.54987576 33.69040961 1.73046875 34.75390625 C0.87388672 35.86572266 0.87388672 35.86572266 0 37 C-2.89881878 34.10118122 -2.25865601 31.96038544 -2.265625 27.91015625 C-2.26753845 27.20982773 -2.2694519 26.50949921 -2.27142334 25.78794861 C-2.27278493 24.30597576 -2.2690903 22.82399098 -2.26074219 21.34204102 C-2.25005777 19.07475915 -2.26062953 16.80827251 -2.2734375 14.54101562 C-2.27211559 13.10156075 -2.26955253 11.66210637 -2.265625 10.22265625 C-2.26336914 8.91047119 -2.26111328 7.59828613 -2.25878906 6.24633789 C-2 3 -2 3 0 0 Z " fill="#000000" transform="translate(522,379)"/>
<path d="M0 0 C0.69802734 0.03287109 1.39605469 0.06574219 2.11523438 0.09960938 C3.14487305 0.10831055 3.14487305 0.10831055 4.1953125 0.1171875 C8.85536416 0.22740632 12.80870046 1.22618888 17.30273438 2.53710938 C17.53116985 31.99842977 17.70798983 61.45970812 17.81338767 90.92172907 C17.82589379 94.40493347 17.83883711 97.88813611 17.85205078 101.37133789 C17.85467389 102.0647411 17.85729699 102.7581443 17.85999958 103.47255973 C17.90343867 114.68024145 17.98224223 125.88740696 18.07426234 137.09478309 C18.16798673 148.60627817 18.2226179 160.11741122 18.24361932 171.62928039 C18.25663363 178.09069097 18.28712378 184.55093325 18.36003494 191.01196861 C18.42817835 197.10013626 18.44879697 203.18666038 18.43381119 209.27517319 C18.43655051 211.50319556 18.45628611 213.73127587 18.49478912 215.95896721 C18.69830772 228.34719781 18.26738927 236.82346233 9.93860435 246.39953327 C7.22283166 248.60190701 5.77953422 249.45132981 2.30273438 249.53710938 C-0.11914062 247.58789062 -0.11914062 247.58789062 -2.44726562 244.84960938 C-3.22585938 243.95886719 -4.00445313 243.068125 -4.80664062 242.15039062 C-8.09548244 237.60445019 -7.83791406 233.29543662 -7.81079102 227.83105469 C-7.81093704 227.05993851 -7.81108307 226.28882233 -7.81123352 225.49433899 C-7.81053811 222.95127528 -7.80276311 220.40828526 -7.79492188 217.86523438 C-7.79305638 216.0997522 -7.79163309 214.3342695 -7.79063416 212.56878662 C-7.78681937 207.92619391 -7.77699795 203.28363258 -7.76593018 198.64105225 C-7.75569373 193.90198186 -7.75113175 189.16290639 -7.74609375 184.42382812 C-7.73537475 175.12823922 -7.71778635 165.83268182 -7.69726562 156.53710938 C-14.95726562 156.86710938 -22.21726562 157.19710937 -29.69726562 157.53710938 C-29.68155518 160.27805908 -29.66584473 163.01900879 -29.6496582 165.84301758 C-29.60000405 174.88746065 -29.56683335 183.93190967 -29.54182911 192.97645283 C-29.52615664 198.46150724 -29.50488944 203.94642229 -29.47094727 209.43139648 C-29.43841032 214.72224998 -29.42042453 220.01296922 -29.4126339 225.30391502 C-29.4070802 227.32499493 -29.39623551 229.34606729 -29.38007545 231.36709023 C-29.35837652 234.19256233 -29.35529554 237.0174759 -29.35668945 239.84301758 C-29.34590363 240.68314896 -29.3351178 241.52328033 -29.32400513 242.38887024 C-29.35468599 248.1159656 -29.35468599 248.1159656 -31.09249401 250.25230694 C-33.17771326 251.92176242 -34.39150271 251.91076658 -37.04101562 251.90039062 C-38.29205078 251.89942383 -38.29205078 251.89942383 -39.56835938 251.8984375 C-40.43589844 251.88232422 -41.3034375 251.86621094 -42.19726562 251.84960938 C-43.49857422 251.85444336 -43.49857422 251.85444336 -44.82617188 251.859375 C-51.29636971 251.80437332 -51.29636971 251.80437332 -54.69726562 249.53710938 C-55.01404415 247.07726112 -55.13206036 244.86378032 -55.12532043 242.39872742 C-55.13493937 241.65481729 -55.1445583 240.91090716 -55.15446872 240.1444543 C-55.18294718 237.63812563 -55.18974715 235.1322071 -55.1965332 232.62573242 C-55.2120505 230.83373499 -55.22874618 229.04174743 -55.24653625 227.24977112 C-55.29025821 222.36902266 -55.31365335 217.4883865 -55.3307631 212.60747886 C-55.34177224 209.55565802 -55.35605784 206.50386893 -55.37128258 203.45206642 C-55.41771943 193.8972703 -55.45126106 184.34254969 -55.46729833 174.78765363 C-55.48599606 163.77142623 -55.54725996 152.75653391 -55.64580041 141.74073762 C-55.71936789 133.22079816 -55.75418813 124.70123542 -55.76016158 116.18098289 C-55.76459653 111.09560958 -55.78515956 106.01155442 -55.84626198 100.92651939 C-55.9028096 96.13327046 -55.9109189 91.34226706 -55.88322258 86.54878807 C-55.8811981 84.79810463 -55.8959996 83.04730016 -55.92969513 81.29693985 C-56.16440529 68.3496231 -53.56395841 62.06570862 -44.69726562 52.53710938 C-43.42155891 50.84788613 -42.16642182 49.14258935 -40.94726562 47.41210938 C-31.16780465 33.87434449 -21.32392403 20.35796843 -10.98999023 7.2355957 C-9.85406046 5.74311913 -8.8261288 4.16973244 -7.81835938 2.58789062 C-5.25929638 0.11365845 -3.50482071 -0.03668223 0 0 Z M-8.69726562 46.53710938 C-14.37982133 52.78657088 -19.3173765 59.65720563 -24.19726562 66.53710938 C-24.98967651 67.64977173 -24.98967651 67.64977173 -25.7980957 68.78491211 C-26.29075928 69.48688721 -26.78342285 70.1888623 -27.29101562 70.91210938 C-27.73123047 71.53859375 -28.17144531 72.16507813 -28.625 72.81054688 C-30.6856957 76.12867984 -30.81981834 78.94241669 -30.81079102 82.74291992 C-30.81071548 83.80379318 -30.81063995 84.86466644 -30.81056213 85.95768738 C-30.80540085 87.10151382 -30.80023956 88.24534027 -30.79492188 89.42382812 C-30.79350693 90.59597366 -30.79209198 91.7681192 -30.79063416 92.9757843 C-30.78502951 96.72541845 -30.77247619 100.47499323 -30.75976562 104.22460938 C-30.75475123 106.76432206 -30.75018821 109.30403567 -30.74609375 111.84375 C-30.73590879 118.07491115 -30.71633414 124.30594369 -30.69726562 130.53710938 C-23.10726562 130.53710938 -15.51726563 130.53710938 -7.69726562 130.53710938 C-7.69726562 102.81710937 -7.69726562 75.09710938 -7.69726562 46.53710938 C-8.02726563 46.53710938 -8.35726562 46.53710938 -8.69726562 46.53710938 Z " fill="#000000" transform="translate(574.697265625,380.462890625)"/>
<path d="M0 0 C9.76466765 0.5873131 19.31530212 2.07167507 28.9375 3.75 C29.70369659 3.88250153 30.46989319 4.01500305 31.25930786 4.15151978 C40.69723286 5.7900356 50.10551988 7.51368361 59.4375 9.6875 C60.26950928 9.87731445 61.10151855 10.06712891 61.95874023 10.26269531 C69.37014089 12.08212338 69.37014089 12.08212338 72 15 C72.61575519 18.02117415 72.54584254 21.01563333 72.51757812 24.08959961 C72.5245874 25.01995529 72.53159668 25.95031097 72.53881836 26.90885925 C72.55645173 29.99032264 72.54475556 33.07087069 72.53125 36.15234375 C72.5339436 38.29081906 72.53782492 40.42929317 72.54284668 42.56776428 C72.54874917 47.05270024 72.54015529 51.53731781 72.52148438 56.0222168 C72.49870841 61.77386069 72.51180494 67.52475747 72.53577423 73.27637386 C72.55022354 77.69358455 72.5456299 82.11061793 72.53526306 86.52783394 C72.53259268 88.64854584 72.53587645 90.76927379 72.54518127 92.88996696 C72.55533084 95.85408062 72.53986702 98.81698254 72.51757812 101.78100586 C72.52567505 102.65958252 72.53377197 103.53815918 72.54211426 104.44335938 C72.45919896 110.38982993 72.45919896 110.38982993 70.12501526 113.49142456 C67.72168565 115.19757891 65.39838983 116.39173227 62.68359375 117.54296875 C61.67232422 117.97673828 60.66105469 118.41050781 59.61914062 118.85742188 C58.56919922 119.29634766 57.51925781 119.73527344 56.4375 120.1875 C54.85678711 120.86329102 54.85678711 120.86329102 53.24414062 121.55273438 C45.6703449 124.7765517 45.6703449 124.7765517 42 126 C46.41642106 133.10467736 51.96451131 139.35226868 57.3046875 145.76953125 C58.04976562 146.67058594 58.79484375 147.57164062 59.5625 148.5 C60.22378906 149.2940625 60.88507812 150.088125 61.56640625 150.90625 C62.77103516 152.43765625 62.77103516 152.43765625 64 154 C64.96780852 155.08942854 64.96780852 155.08942854 65.95516872 156.20086575 C72.28159547 163.86132304 73.12740576 169.68594996 72.92407227 179.43579102 C72.92345129 180.8528723 72.92635543 182.26995879 72.93247986 183.68702698 C72.93899554 187.50124608 72.89638033 191.31345353 72.84408307 195.12725949 C72.79750024 199.12739154 72.79600964 203.12755284 72.78929138 207.12791443 C72.77187905 213.8334319 72.72564064 220.53821178 72.65844727 227.2434082 C72.56363943 236.70763661 72.52044711 246.1715855 72.48781502 255.63620484 C72.44137567 268.3085941 72.38097991 280.98129322 72.25945473 293.65320396 C72.24691603 295.02464516 72.23602467 296.39610252 72.22687149 297.7675705 C72.21398428 299.63399026 72.19423209 301.50035893 72.17408752 303.36671448 C72.16461877 304.4124894 72.15515001 305.45826433 72.14539433 306.53572941 C72 309 72 309 71 311 C66.55608881 309.51869627 63.18864581 307.06721112 59.5625 304.1875 C59.01529297 303.76146484 58.46808594 303.33542969 57.90429688 302.89648438 C56.25904235 301.60948646 54.62329198 300.31466119 53 299 C51.98597107 298.37842514 50.97194214 297.75685028 49.92718506 297.11643982 C47.83094361 295.34703217 47.08610904 294.37305867 46.4632864 291.6747427 C46.28357813 288.66175987 46.29604791 285.70071336 46.36987305 282.68310547 C46.37369995 281.53936966 46.37752686 280.39563385 46.38146973 279.21723938 C46.39314148 276.73448194 46.41836422 274.25175974 46.45551109 271.76925278 C46.51220213 267.83363045 46.52906698 263.89965962 46.53486633 259.96365356 C46.55381599 250.184667 46.62787867 240.4061896 46.73181152 230.62774658 C46.81950225 222.37102523 46.87207915 214.11583783 46.87244606 205.85861588 C46.8819038 203.25512771 46.90866823 200.6516406 46.95337486 198.04851913 C47.86936303 182.0592704 47.86936303 182.0592704 41.6159668 168.02563477 C40.12038466 166.63591092 38.58668966 165.2847234 37 164 C36.05601125 162.91197857 35.13606965 161.80189605 34.2578125 160.66015625 C32.82070544 158.90983355 31.38319713 157.15984023 29.9453125 155.41015625 C28.2469931 153.30601354 26.60519265 151.1755913 25 149 C23.84674524 154.48889838 23.87256746 159.81047577 23.90234375 165.38891602 C23.90453415 166.93898598 23.90453415 166.93898598 23.9067688 168.52037048 C23.91056732 170.75964907 23.91667599 172.99892466 23.92483521 175.2381916 C23.9376364 178.79177068 23.94412487 182.34531225 23.94897461 185.89891052 C23.96232546 194.73009165 23.98645055 203.56123734 24.01037598 212.39239502 C24.03018692 219.84978477 24.04579866 227.30716088 24.05593872 234.76457024 C24.0623736 238.24798411 24.0748849 241.73134137 24.08764648 245.21473694 C24.11112454 255.5221699 24.12435394 265.74066646 23 276 C18.812067 276 17.55829293 274.21045544 14.61875248 271.3822155 C12.69187663 269.62938336 10.84533144 268.13209878 8.76081753 266.60180855 C3.18424653 262.21512275 -1.00794554 257.99100359 -2.20275688 250.78435898 C-2.82092848 244.31093505 -2.69875555 237.8415727 -2.59936523 231.34716797 C-2.60884639 228.85751164 -2.62401379 226.36787148 -2.64440918 223.87828064 C-2.67924849 217.84538915 -2.65475634 211.81541964 -2.60296004 205.78287308 C-2.54563982 198.75425724 -2.5605879 191.72633494 -2.57917131 184.69757737 C-2.61024209 172.16165396 -2.58217699 159.62658882 -2.51782227 147.09082031 C-2.45548771 134.92889366 -2.42622836 122.76755679 -2.43774414 110.60546875 C-2.43844654 109.85487048 -2.43914893 109.10427222 -2.43987262 108.33092855 C-2.44279301 105.31375797 -2.44584711 102.29658757 -2.44910183 99.27941733 C-2.46249241 86.27866175 -2.4525975 73.27790395 -2.43619981 60.27715522 C-2.43445806 58.87532066 -2.43282134 57.47348596 -2.43128809 56.07165116 C-2.42173332 47.38802842 -2.40049914 38.70461194 -2.35762787 30.0210743 C-2.34700179 27.6002749 -2.33973132 25.17945821 -2.33599281 22.75863838 C-2.33011049 19.4650134 -2.31183362 16.17169576 -2.2900238 12.87814331 C-2.29087288 11.91133947 -2.29172195 10.94453563 -2.29259676 9.94843471 C-2.28408097 9.06917957 -2.27556518 8.18992443 -2.26679134 7.28402519 C-2.2635416 6.52365735 -2.26029186 5.76328951 -2.25694364 4.97988021 C-2 3 -2 3 0 0 Z M23 30 C22.95372259 39.61384418 22.91815427 49.22765021 22.89637566 58.84158134 C22.88592466 63.30539755 22.87174156 67.76913772 22.84912109 72.23291016 C22.82743948 76.53820674 22.8154413 80.84343005 22.81024551 85.14877701 C22.80654131 86.79387694 22.79930823 88.43897273 22.78853989 90.0840416 C22.77408701 92.38277704 22.77201942 94.68120713 22.77294922 96.97998047 C22.768508 98.2901413 22.76406677 99.60030212 22.75949097 100.95016479 C22.67651735 104.10940312 22.67651735 104.10940312 25 106 C28.48082996 104.5247255 31.95937231 103.04413293 35.4375 101.5625 C36.43072266 101.14162109 37.42394531 100.72074219 38.44726562 100.28710938 C39.39150391 99.88427734 40.33574219 99.48144531 41.30859375 99.06640625 C42.18314209 98.69459229 43.05769043 98.32277832 43.95874023 97.93969727 C45.94927315 97.16626808 45.94927315 97.16626808 47 96 C47.09396057 94.06693502 47.11743517 92.13041162 47.11352539 90.19506836 C47.11341209 88.33325172 47.11341209 88.33325172 47.11329651 86.43382263 C47.10818911 85.0691626 47.1029731 83.70450298 47.09765625 82.33984375 C47.095792 80.95121817 47.09436813 79.56259193 47.09336853 78.17396545 C47.08954387 74.51278885 47.07971403 70.8516517 47.06866455 67.19049072 C47.05844932 63.45707737 47.05387067 59.72365766 47.04882812 55.99023438 C47.03809171 48.66013823 47.02101591 41.33007464 47 34 C39.00269231 31.45175967 31.37495014 30.38612648 23 30 Z " fill="#000000" transform="translate(611,385)"/>
<path d="M0 0 C0 36.96 0 73.92 0 112 C-7.05878965 115.52939482 -13.96457236 118.70712958 -21.26953125 121.58007812 C-25.4813849 123.23182549 -25.4813849 123.23182549 -29 126 C-27.02117438 128.43777704 -25.04190695 130.87519497 -23.0625 133.3125 C-22.47001465 134.04218994 -21.8775293 134.77187988 -21.26708984 135.52368164 C-17.2603352 140.45586525 -13.23840767 145.37488624 -9.1953125 150.27734375 C-8.47085938 151.17582031 -7.74640625 152.07429687 -7 153 C-6.16065414 153.74966789 -6.16065414 153.74966789 -5.30435181 154.51448059 C2.3334799 162.24597824 1.28431342 172.30726459 1.421875 182.484375 C1.44166664 183.47593849 1.46145828 184.46750198 1.48184967 185.48911285 C1.58649902 190.74596413 1.6512673 196.00148861 1.68164062 201.25927734 C1.71227462 205.56918799 1.80912982 209.8692314 1.96875 214.17626953 C3.39220043 253.26856575 3.39220043 253.26856575 -6.19808578 264.23477554 C-10.60458564 268.81927122 -15.60001486 272.65217922 -21 276 C-21.99 275.67 -22.98 275.34 -24 275 C-25.34716333 270.95851 -25.0939931 267.08091576 -25.04663086 262.86962891 C-25.03385335 260.93039149 -25.02141309 258.99115184 -25.00926208 257.0519104 C-25.00134581 256.02199604 -24.99342953 254.99208168 -24.98527336 253.93095779 C-24.94311784 247.3188428 -24.95500165 240.70654765 -24.95516109 234.09432411 C-24.95216997 228.29111092 -24.93162539 222.48897462 -24.87329102 216.68603516 C-24.8178598 211.06696125 -24.811752 205.44968861 -24.83798409 199.83042526 C-24.83921252 197.69755076 -24.8229047 195.56458574 -24.78806877 193.43199539 C-24.59738212 181.10027674 -24.97203045 172.74710725 -33.54429626 163.42262268 C-34.3546785 162.6231572 -35.16506073 161.82369171 -36 161 C-37.06882754 159.73709287 -38.12650358 158.46450085 -39.1640625 157.17578125 C-40.82991198 155.2375786 -42.49660331 153.30009923 -44.1640625 151.36328125 C-46 149 -46 149 -46 147 C-46.66 147 -47.32 147 -48 147 C-47.99078207 147.74414878 -47.98156414 148.48829756 -47.97206688 149.2549963 C-47.75097175 167.38366659 -47.58562279 185.51206691 -47.48187828 203.64179897 C-47.43037073 212.40939773 -47.36018384 221.17609514 -47.24560547 229.94311523 C-47.14575505 237.58688045 -47.0813767 245.2299928 -47.05911505 252.87439209 C-47.04610622 256.92035877 -47.01566557 260.96445826 -46.94269943 265.00982475 C-46.87448198 268.82304694 -46.85394772 272.63364567 -46.86892319 276.44742012 C-46.86618664 277.8418724 -46.84648471 279.23641828 -46.80794525 280.63034058 C-46.53218905 291.12464941 -46.53218905 291.12464941 -50.18858719 295.7962513 C-52.69264847 298.07512975 -55.22704668 300.0624548 -58 302 C-59.08538031 302.88232993 -60.16708726 303.76923514 -61.2421875 304.6640625 C-62.11101562 305.31117188 -62.97984375 305.95828125 -63.875 306.625 C-64.75929688 307.29789063 -65.64359375 307.97078125 -66.5546875 308.6640625 C-69 310 -69 310 -71.15283203 309.58349609 C-71.76239746 309.39094238 -72.37196289 309.19838867 -73 309 C-73.06861634 271.46982228 -73.12150345 233.93965398 -73.15319599 196.40942625 C-73.15694826 191.98201649 -73.16083121 187.55460685 -73.16479492 183.12719727 C-73.16558185 182.24575284 -73.16636878 181.36430841 -73.16717956 180.45615355 C-73.18024543 166.17037087 -73.20390576 151.88462428 -73.23145839 137.59886303 C-73.25947976 122.94824002 -73.27616933 108.29763596 -73.28226548 93.64698726 C-73.28638873 84.60147849 -73.29942722 75.55607173 -73.3237494 66.51059435 C-73.33956629 60.31385672 -73.34440958 54.11717208 -73.34050413 47.92041572 C-73.33857624 44.34132808 -73.3416008 40.7624191 -73.35761642 37.18336296 C-73.37482809 33.30887637 -73.36899033 29.43462515 -73.36076355 25.56010437 C-73.36950207 24.42101315 -73.3782406 23.28192192 -73.38724393 22.10831279 C-73.38127078 21.07473795 -73.37529764 20.0411631 -73.36914349 18.97626781 C-73.37028265 18.081267 -73.37142181 17.18626618 -73.37259549 16.26414412 C-72.92239194 13.52840053 -72.16925089 12.67140832 -70 11 C-66.54844957 9.68679198 -62.91233057 8.99443416 -59.3125 8.1875 C-58.20503418 7.93540771 -57.09756836 7.68331543 -55.95654297 7.42358398 C-44.92046876 5.02098657 -33.7889717 3.25528063 -22.625 1.5625 C-21.73116608 1.42508392 -20.83733215 1.28766785 -19.91641235 1.14608765 C-17.3544728 0.75551669 -14.79106434 0.37724304 -12.2265625 0.00390625 C-11.06874016 -0.17212631 -11.06874016 -0.17212631 -9.88752747 -0.35171509 C-6.13133293 -0.88080113 -3.74362924 -0.93590731 0 0 Z M-35.05078125 29.62109375 C-36.09782227 29.81735352 -36.09782227 29.81735352 -37.16601562 30.01757812 C-37.87435547 30.15615234 -38.58269531 30.29472656 -39.3125 30.4375 C-40.04017578 30.57220703 -40.76785156 30.70691406 -41.51757812 30.84570312 C-45.05592489 31.27358231 -45.05592489 31.27358231 -48 33 C-48.09432985 35.20867831 -48.11742431 37.42041521 -48.11352539 39.63110352 C-48.11367142 40.32375305 -48.11381744 41.01640259 -48.1139679 41.7300415 C-48.11326874 44.02969446 -48.10547628 46.32926737 -48.09765625 48.62890625 C-48.09579208 50.21931412 -48.09436817 51.80972257 -48.09336853 53.40013123 C-48.08954329 57.5939593 -48.07971295 61.78775295 -48.06866455 65.98156738 C-48.05845057 70.25788914 -48.05387094 74.53421644 -48.04882812 78.81054688 C-48.03809069 87.20704708 -48.02101419 95.60351926 -48 104 C-44.77349108 103.38175974 -41.86526808 102.66488587 -38.828125 101.40625 C-38.08175781 101.09816406 -37.33539063 100.79007812 -36.56640625 100.47265625 C-35.80199219 100.15167969 -35.03757812 99.83070313 -34.25 99.5 C-33.47011719 99.17902344 -32.69023437 98.85804688 -31.88671875 98.52734375 C-28.17565299 97.19918265 -28.17565299 97.19918265 -25 95 C-24.90586313 92.94443339 -24.88257002 90.88559819 -24.88647461 88.82788086 C-24.88632858 88.18399918 -24.88618256 87.54011749 -24.8860321 86.87672424 C-24.88673115 84.73939697 -24.89452309 82.60215587 -24.90234375 80.46484375 C-24.90420796 78.98653715 -24.90563185 77.50822993 -24.90663147 76.02992249 C-24.91045641 72.13201198 -24.92028648 68.23413851 -24.93133545 64.33624268 C-24.94155008 60.36153667 -24.9461292 56.38682471 -24.95117188 52.41210938 C-24.96190878 44.608056 -24.97898491 36.80403318 -25 29 C-28.43316258 28.98057428 -31.67330808 28.98397265 -35.05078125 29.62109375 Z " fill="#000000" transform="translate(414,386)"/>
<path d="M0 0 C17.910026 4.52055945 36.57383141 13.54339815 50.46875 25.78515625 C52.96163848 28.04125799 52.96163848 28.04125799 55.71875 29.93359375 C63.83039307 36.05311271 65.50292804 43.04187098 67.48974609 52.56640625 C67.98985599 54.9516194 68.54420113 57.31790398 69.11328125 59.6875 C82.13773214 115.38186776 71.01855119 173.99440479 47 225 C46.67 225 46.34 225 46 225 C45.67 194.97 45.34 164.94 45 134 C38.4 134 31.8 134 25 134 C23.74554067 136.50891865 23.87250762 138.2130571 23.86869812 141.02154541 C23.86468994 142.08422134 23.86068176 143.14689728 23.85655212 144.24177551 C23.85708084 145.41270248 23.85760956 146.58362946 23.8581543 147.79003906 C23.85467987 149.01939682 23.85120544 150.24875458 23.84762573 151.5153656 C23.84025796 154.19290961 23.83458984 156.87040377 23.83133507 159.54795074 C23.82542735 163.78402284 23.80888842 168.02001079 23.78999329 172.25604248 C23.78365566 173.70618052 23.77733004 175.15631861 23.77101612 176.60645676 C23.76785031 177.33277093 23.7646845 178.05908511 23.76142275 178.80740881 C23.71934919 188.67058173 23.68638031 198.533716 23.67407227 208.39697266 C23.66568738 215.04796047 23.6431795 221.69874052 23.6047166 228.3496244 C23.58496694 231.86878944 23.57254752 235.38764398 23.57755089 238.90686798 C23.58306818 242.83557653 23.55777373 246.76376137 23.5300293 250.69238281 C23.53663071 251.85521286 23.54323212 253.01804291 23.55003357 254.21611023 C23.47742842 260.47026951 23.17193459 264.22953017 19 269 C18.33037231 269.91048096 18.33037231 269.91048096 17.6472168 270.83935547 C17.25187744 271.34354004 16.85653809 271.84772461 16.44921875 272.3671875 C16.00118896 272.93937012 15.55315918 273.51155273 15.09155273 274.10107422 C14.62821533 274.68646973 14.16487793 275.27186523 13.6875 275.875 C13.20547119 276.4848877 12.72344238 277.09477539 12.22680664 277.72314453 C3.6734389 288.49024103 3.6734389 288.49024103 1 291 C0.34 291 -0.32 291 -1 291 C-1.9340481 275.04245858 -2.14894723 259.13601765 -2.14526367 243.15380859 C-2.14826296 240.52506884 -2.15163989 237.89633187 -2.15544128 235.26759338 C-2.16365883 228.9267346 -2.1664918 222.58588512 -2.16705366 216.24502145 C-2.16753197 211.09394552 -2.1696022 205.94287261 -2.17275429 200.79179764 C-2.18152726 186.15594414 -2.18617757 171.5200979 -2.18542381 156.88424174 C-2.18538386 156.09937556 -2.1853439 155.31450938 -2.18530273 154.50585938 C-2.18526185 153.72002769 -2.18522097 152.93419601 -2.18517885 152.12455125 C-2.18477068 139.33387787 -2.19439181 126.54323368 -2.2084411 113.75256877 C-2.22278611 100.58837291 -2.2297127 87.42419135 -2.22884732 74.25998747 C-2.22851528 66.88085604 -2.23126718 59.50175544 -2.24202538 52.12263107 C-2.25205052 45.20318211 -2.25181487 38.28379957 -2.24450874 31.36434746 C-2.24345839 28.82097338 -2.24585225 26.27759531 -2.2518692 23.73422813 C-2.259527 20.27467519 -2.25498617 16.81535204 -2.24723816 13.35580444 C-2.25238172 12.33998429 -2.25752529 11.32416413 -2.26282471 10.27756155 C-2.25822592 9.35447246 -2.25362712 8.43138337 -2.24888897 7.48032188 C-2.24910634 6.68176195 -2.24932371 5.88320201 -2.24954766 5.06044328 C-2 3 -2 3 0 0 Z M24 39 C22.69637405 40.07879307 22.69637405 40.07879307 22.87974548 42.66383362 C22.88196609 43.85186081 22.88418671 45.039888 22.88647461 46.26391602 C22.88632858 46.91755127 22.88618256 47.57118652 22.8860321 48.24462891 C22.88673117 50.41442128 22.89452322 52.58412879 22.90234375 54.75390625 C22.90420795 56.25463311 22.90563184 57.75536057 22.90663147 59.25608826 C22.91045648 63.21318226 22.9202866 67.17023978 22.93133545 71.12731934 C22.94154994 75.16234849 22.94612917 79.19738353 22.95117188 83.23242188 C22.9619089 91.15496656 22.97950555 99.07747454 23 107 C30.59 107 38.18 107 46 107 C46.06944967 102.0922232 46.12900233 97.18619984 46.16479492 92.27832031 C46.17973924 90.61419855 46.20010223 88.95011517 46.22631836 87.28613281 C46.44706303 72.89877398 45.99216378 60.31728944 36 49 C32.51559404 45.46388201 28.85229916 42.13249239 25 39 C24.67 39 24.34 39 24 39 Z " fill="#000000" transform="translate(701,404)"/>
<path d="M0 0 C0.97372516 2.92117547 1.12526963 4.77469899 1.12584114 7.81450748 C1.12844889 8.81201497 1.13105664 9.80952246 1.13374341 10.83725744 C1.13151268 11.93607495 1.12928196 13.03489245 1.12698364 14.16700745 C1.12932363 15.91445429 1.12932363 15.91445429 1.13171089 17.6972031 C1.1350167 20.93602508 1.13381696 24.17480978 1.13072467 27.41363084 C1.12846772 30.90444858 1.13195165 34.39526116 1.13470459 37.88607788 C1.13915795 44.72638209 1.13818778 51.56667534 1.13529195 58.40697999 C1.13303641 63.96419645 1.13272605 69.52140984 1.13381577 75.07862663 C1.133969 75.86862067 1.13412223 76.65861471 1.13428011 77.47254796 C1.13459982 79.0772369 1.13492404 80.68192583 1.1352527 82.28661477 C1.13810617 97.3436338 1.13482244 112.40064675 1.12945233 127.45766478 C1.12498355 140.38803933 1.1257611 153.31840491 1.13037109 166.2487793 C1.1357177 181.25233497 1.13783241 196.2558853 1.13475883 211.25944179 C1.13444027 212.85802424 1.1341259 214.45660669 1.13381577 216.05518913 C1.13358435 217.23509669 1.13358435 217.23509669 1.13334826 218.43884077 C1.13248343 223.99236103 1.13394524 229.54587792 1.13629532 235.09939766 C1.13909443 241.86291187 1.13835266 248.62641446 1.13301457 255.38992734 C1.1303792 258.84328186 1.12936975 262.29661699 1.13266373 265.74997139 C1.1353752 269.48665932 1.1319941 273.22329184 1.12698364 276.9599762 C1.13032973 278.61154853 1.13032973 278.61154853 1.13374341 280.29648596 C1.12983178 281.78883557 1.12983178 281.78883557 1.12584114 283.31133366 C1.12567879 284.17471035 1.12551644 285.03808704 1.12534916 285.92762667 C1 288 1 288 0 290 C-4.80058957 288.04976049 -7.16749228 284.46806495 -10.23895264 280.43530273 C-12.05639545 278.09767651 -13.96748881 275.99737112 -16.07208252 273.91674805 C-27.37341551 262.02712499 -26.60873266 249.14417141 -26.21672726 233.53077316 C-26.14078204 229.98637906 -26.13459125 226.44181073 -26.12042236 222.89672852 C-26.08339027 216.20957481 -25.98529667 209.52482618 -25.86422849 202.83872318 C-25.72925257 195.21610669 -25.66391186 187.59336418 -25.60388327 179.96984673 C-25.47905722 164.31180846 -25.26605996 148.65631156 -25 133 C-32.26 132.67 -39.52 132.34 -47 132 C-47 162.03 -47 192.06 -47 223 C-49.52949515 220.47050485 -50.45150905 219.45640444 -51.76171875 216.39453125 C-52.07197998 215.67096436 -52.38224121 214.94739746 -52.7019043 214.2019043 C-53.02715088 213.41340088 -53.35239746 212.62489746 -53.6875 211.8125 C-54.03272705 210.97952393 -54.3779541 210.14654785 -54.73364258 209.28833008 C-68.4969113 175.41119183 -75.93317799 139.64844483 -75 103 C-74.98743164 102.28457031 -74.97486328 101.56914062 -74.96191406 100.83203125 C-73.9193683 48.66219013 -73.9193683 48.66219013 -61.625 34.25 C-60.43885118 33.14242087 -59.2312234 32.05724618 -58 31 C-56.95754742 29.85488163 -55.91589699 28.70903257 -54.875 27.5625 C-43.0898258 16.03863786 -26.99620696 7.59720072 -11.6875 1.875 C-10.86878418 1.56739746 -10.05006836 1.25979492 -9.20654297 0.94287109 C-3.38620224 -1.12873408 -3.38620224 -1.12873408 0 0 Z M-37 47 C-44.10724377 55.97618565 -47.51164211 65.01844752 -47.29296875 76.41015625 C-47.28872391 77.26306747 -47.28447906 78.1159787 -47.28010559 78.99473572 C-47.2634863 81.6843295 -47.22586775 84.37313769 -47.1875 87.0625 C-47.17243143 88.9003797 -47.15874686 90.73827131 -47.14648438 92.57617188 C-47.11620599 97.05131784 -47.05745629 101.52479317 -47 106 C-39.74 106 -32.48 106 -25 106 C-25 83.89 -25 61.78 -25 39 C-29.62249588 39 -33.82689023 43.98839581 -37 47 Z " fill="#000000" transform="translate(324,405)"/>
<path d="M0 0 C0.9061225 0.00092179 1.81224501 0.00184359 2.74582577 0.00279331 C3.78214138 0.00141865 4.81845699 0.00004398 5.88617611 -0.00137234 C7.60599445 0.00402058 7.60599445 0.00402058 9.3605566 0.00952244 C10.56039181 0.00937641 11.76022701 0.00923038 12.99642086 0.00907993 C16.29586749 0.00965889 19.59525222 0.01468805 22.89468789 0.02165389 C26.33935856 0.0278881 29.78402997 0.02849128 33.22870541 0.0296793 C39.75584288 0.03279242 46.28296369 0.04100554 52.81009382 0.05102879 C60.23923575 0.06219053 67.66837845 0.06770053 75.09752667 0.07272422 C90.38369931 0.08318817 105.6698553 0.10078723 120.95601559 0.12304783 C122.15211512 4.11556926 121.54252707 5.71334287 119.67867184 9.48242283 C118.83780025 11.20307957 118.83780025 11.20307957 117.97994137 12.95849705 C117.32645666 14.26350954 116.67263363 15.56835267 116.01851559 16.87304783 C115.33001447 18.26732817 114.64238865 19.66204099 113.95552731 21.05712986 C111.83529552 25.35170567 109.69601593 29.63661736 107.5548315 33.92077732 C105.77115735 37.49330064 103.9923208 41.06820833 102.21431637 44.64355564 C98.00932449 53.09810212 93.79705577 61.54900587 89.58101559 69.99804783 C89.23247147 70.69671467 88.88392735 71.39538151 88.52482128 72.11522007 C74.67073793 99.88201077 74.67073793 99.88201077 68.22945309 112.19336033 C67.84592678 112.93004948 67.46240047 113.66673862 67.06725216 114.42575169 C64.91420821 118.50208201 62.57958559 122.3314754 59.95601559 126.12304783 C56.95601559 125.12304783 56.95601559 125.12304783 55.78937435 123.38430882 C55.41760571 122.62665226 55.04583706 121.8689957 54.6628027 121.08837986 C54.02084202 119.79905048 54.02084202 119.79905048 53.36591244 118.48367405 C52.90966991 117.54224552 52.45342739 116.60081699 51.98335934 115.63086033 C51.25953815 114.16904835 51.25953815 114.16904835 50.52109432 112.67770481 C48.96910384 109.53905087 47.43081735 106.3939186 45.89351559 103.24804783 C43.88569876 99.16539029 41.87256654 95.0853683 39.85835934 91.00586033 C39.35669247 89.987934 38.8550256 88.97000767 38.3381567 87.92123508 C35.33891923 81.85418354 32.26804993 75.83406579 29.09273434 69.85742283 C23.12203838 58.61825166 17.37998673 47.26438964 11.66597652 35.89306736 C10.43025378 33.43517309 9.18868888 30.9803575 7.94234371 28.52783298 C6.12052302 24.94278463 4.31501988 21.34975076 2.51070309 17.75586033 C1.95148159 16.66008671 1.39226009 15.56431309 0.81609249 14.43533421 C0.3078091 13.4159174 -0.20047428 12.39650059 -0.72416019 11.34619236 C-1.17365025 10.45529911 -1.6231403 9.56440586 -2.08625126 8.64651585 C-3.11571081 5.93406068 -3.31086895 3.9991909 -3.04398441 1.12304783 C-2.04398441 0.12304783 -2.04398441 0.12304783 0 0 Z M35.95601559 25.12304783 C39.65629633 34.20445262 39.65629633 34.20445262 43.85835934 42.93945408 C44.35658199 43.88884861 44.85480465 44.83824314 45.36812496 45.8164072 C45.87150387 46.76322361 46.37488277 47.71004002 46.89351559 48.68554783 C47.39302731 49.63623142 47.89253902 50.58691502 48.40718746 51.5664072 C51.85997951 58.12002928 55.3934862 64.62853223 58.95601559 71.12304783 C61.79217352 67.64183321 63.7940543 63.80933597 65.82710934 59.83007908 C66.19071056 59.12461445 66.55431179 58.41914982 66.92893124 57.69230747 C67.6963356 56.20130663 68.46191764 54.70936663 69.22579098 53.21655369 C70.38184705 50.95834087 71.54442024 48.70357946 72.70796871 46.4492197 C73.45640921 44.99304174 74.20446807 43.53666755 74.95210934 42.08007908 C75.29390728 41.41724415 75.63570522 40.75440922 75.98786068 40.07148838 C78.50230382 35.14642362 80.70124748 30.19627606 82.95601559 25.12304783 C67.44601559 25.12304783 51.93601559 25.12304783 35.95601559 25.12304783 Z " fill="#000000" transform="translate(453.043984413147,648.8769521713257)"/>
<path d="M0 0 C3.01486588 1.31218073 3.62484352 3.14522897 5.08764648 6.05517578 C5.64484375 7.14701172 6.20204102 8.23884766 6.77612305 9.36376953 C7.3698198 10.56155128 7.96323735 11.75947145 8.55639648 12.95751953 C9.17726486 14.18599231 9.79935024 15.41385072 10.42260742 16.64111328 C12.0130235 19.78153196 13.58680874 22.92993215 15.15429688 26.08184814 C16.52833136 28.84358309 17.91006798 31.60145781 19.29077148 34.35986328 C20.74024308 37.25674497 22.18766175 40.15435234 23.62084961 43.05932617 C26.5526412 48.98281894 29.59827773 54.8387836 32.68920898 60.68017578 C37.98279396 70.69578718 43.12730234 80.78346822 48.21020508 90.9074707 C49.20539583 92.8861266 50.20419679 94.86297015 51.20629883 96.83813477 C52.677093 99.73738278 54.13745194 102.64166805 55.59545898 105.54736328 C56.04531158 106.42956039 56.49516418 107.31175751 56.95864868 108.22068787 C57.36682831 109.03997269 57.77500793 109.85925751 58.19555664 110.70336914 C58.55622223 111.41883408 58.91688782 112.13429901 59.28848267 112.8714447 C60.05639648 114.89501953 60.05639648 114.89501953 60.05639648 118.89501953 C11.06157617 117.91512312 -42.43101377 95.12615842 -79.94360352 63.89501953 C-81.78344727 61.62939453 -81.78344727 61.62939453 -82.94360352 59.89501953 C-73.22755715 52.32452739 -63.34607444 44.99490993 -53.4152832 37.70947266 C-49.42056607 34.77696202 -45.43236282 31.83562565 -41.44360352 28.89501953 C-39.87071133 27.73613213 -38.2977946 26.57727806 -36.72485352 25.41845703 C-32.61835262 22.39270328 -28.51310672 19.36525214 -24.40869141 16.33666992 C-22.78677256 15.14139428 -21.16359559 13.94782364 -19.5390625 12.75610352 C-16.15016439 10.26948391 -12.77138607 7.7767167 -9.44750977 5.20361328 C-8.4768457 4.46240234 -7.50618164 3.72119141 -6.50610352 2.95751953 C-5.70301758 2.32974609 -4.89993164 1.70197266 -4.07250977 1.05517578 C-1.94360352 -0.10498047 -1.94360352 -0.10498047 0 0 Z M-13.40063477 40.16845703 C-14.09552002 40.65910645 -14.79040527 41.14975586 -15.50634766 41.65527344 C-16.24876709 42.18813965 -16.99118652 42.72100586 -17.75610352 43.27001953 C-18.51205811 43.80933105 -19.2680127 44.34864258 -20.046875 44.90429688 C-24.90655577 48.38902111 -29.73648851 51.91288406 -34.50610352 55.52001953 C-35.05951416 55.93300293 -35.6129248 56.34598633 -36.18310547 56.77148438 C-37.4756566 57.7637669 -38.71608045 58.82333853 -39.94360352 59.89501953 C-39.94360352 60.55501953 -39.94360352 61.21501953 -39.94360352 61.89501953 C-28.05019272 68.36053519 -16.17896603 74.76629612 -3.50610352 79.58251953 C-2.6866626 79.89640625 -1.86722168 80.21029297 -1.02294922 80.53369141 C4.57865767 82.58167691 10.18410874 83.87668136 16.05639648 84.89501953 C15.64131836 84.06486328 15.22624023 83.23470703 14.79858398 82.37939453 C14.50935059 81.80084717 14.22011719 81.2222998 13.92211914 80.6262207 C13.24757346 79.27729558 12.57275817 77.92850525 11.89770508 76.57983398 C9.7327015 72.25307757 7.57243194 67.92401192 5.41781616 63.59207153 C4.15690586 61.05767746 2.8943577 58.52410095 1.63165283 55.99060059 C0.99889425 54.72004379 0.36685296 53.44912951 -0.26446533 52.17785645 C-1.16346774 50.36781063 -2.06520651 48.5591247 -2.96704102 46.75048828 C-3.49217285 45.69498779 -4.01730469 44.6394873 -4.55834961 43.55200195 C-5.94439542 40.77769386 -5.94439542 40.77769386 -7.94360352 37.89501953 C-10.50467891 37.89501953 -11.32226327 38.69414691 -13.40063477 40.16845703 Z " fill="#000000" transform="translate(428.943603515625,656.10498046875)"/>
<path d="M0 0 C3.73501255 0.32414916 6.06124951 1.45825796 9.01171875 3.703125 C9.76001953 4.26451172 10.50832031 4.82589844 11.27929688 5.40429688 C12.47135742 6.31791992 12.47135742 6.31791992 13.6875 7.25 C15.39909312 8.53731831 17.11134819 9.8237569 18.82421875 11.109375 C20.12238525 12.08874023 20.12238525 12.08874023 21.44677734 13.08789062 C25.26062875 15.94408533 29.12817718 18.72319048 33 21.5 C41.56276684 27.66327929 50.05810386 33.91563444 58.54296875 40.18554688 C63.64427014 43.95272413 68.75244232 47.7105894 73.85913086 51.47045898 C74.60557861 52.02032471 75.35202637 52.57019043 76.12109375 53.13671875 C76.7752124 53.61842529 77.42933105 54.10013184 78.10327148 54.59643555 C80.07533622 56.05574822 82.0389098 57.52598151 84 59 C83.15478069 63.86825627 79.99889461 65.73120858 76.1875 68.5 C75.48044922 69.02045898 74.77339844 69.54091797 74.04492188 70.07714844 C60.56378039 79.81093013 46.0448026 87.95860807 31 95 C29.96141846 95.4942749 29.96141846 95.4942749 28.90185547 95.99853516 C5.58940087 107.03960935 -19.23945439 114.1711439 -44.75 117.9375 C-46.04454102 118.13037598 -46.04454102 118.13037598 -47.36523438 118.32714844 C-51.49025955 118.87880843 -54.93298344 119.1986126 -59 118 C-58.39595578 114.08542228 -57.19448514 111.09603661 -55.33984375 107.60546875 C-54.79263672 106.56583984 -54.24542969 105.52621094 -53.68164062 104.45507812 C-53.10607422 103.37677734 -52.53050781 102.29847656 -51.9375 101.1875 C-48.32397432 94.3638387 -44.74106943 87.53320593 -41.29858398 80.62182617 C-40.95369619 79.93072943 -40.6088084 79.23963268 -40.25346947 78.52759361 C-39.16815464 76.35213922 -38.0839118 74.17615375 -37 72 C-36.48959451 70.97550405 -36.48959451 70.97550405 -35.96887779 69.9303112 C-34.2480693 66.47588376 -32.52811283 63.0210331 -30.80862427 59.56594849 C-28.1273383 54.17886155 -25.44201129 48.79379065 -22.75627327 43.4089222 C-20.72377233 39.33338418 -18.69282019 35.25708789 -16.66503906 31.17919922 C-14.68171529 27.19088219 -12.69453076 23.20451128 -10.70461655 19.21947861 C-9.95125759 17.70906929 -9.19930576 16.19795727 -8.44879532 14.68613052 C-7.40721816 12.58853013 -6.36071943 10.49345748 -5.31298828 8.39892578 C-5.00547134 7.77670135 -4.69795441 7.15447693 -4.38111877 6.51339722 C-3.10708377 3.97758812 -2.02220803 2.02220803 0 0 Z M10 37 C3.52855598 48.6388886 -2.7766317 60.34662723 -8.75 72.25 C-9.2749707 73.29091797 -9.79994141 74.33183594 -10.34082031 75.40429688 C-10.82131836 76.36916016 -11.30181641 77.33402344 -11.796875 78.328125 C-12.22323242 79.1830957 -12.64958984 80.03806641 -13.08886719 80.91894531 C-14.13368896 82.92672079 -14.13368896 82.92672079 -14 85 C0.95389467 81.63800026 15.36917564 75.52796236 29.0625 68.75 C29.90095459 68.33806396 30.73940918 67.92612793 31.60327148 67.50170898 C32.38516846 67.10411377 33.16706543 66.70651855 33.97265625 66.296875 C34.65593994 65.94979492 35.33922363 65.60271484 36.04321289 65.24511719 C38.36520958 63.76761461 40.11826179 61.99814793 42 60 C38.73498693 57.4715586 35.46192813 54.95373286 32.1875 52.4375 C31.27806641 51.73302734 30.36863281 51.02855469 29.43164062 50.30273438 C23.16492997 45.49751808 16.7312794 41.12857246 10 37 Z " fill="#000000" transform="translate(594,656)"/>
</svg>
